<?xml version="1.0" encoding="UTF-8" standalone="no"?><svg xmlns="http://www.w3.org/2000/svg" xmlns:xlink="http://www.w3.org/1999/xlink" contentScriptType="application/ecmascript" contentStyleType="text/css" height="860px" preserveAspectRatio="none" style="width:1325px;height:860px;" version="1.1" viewBox="0 0 1325 860" width="1325px" zoomAndPan="magnify"><defs><filter height="300%" id="f42bl2zqvc219" width="300%" x="-1" y="-1"><feGaussianBlur result="blurOut" stdDeviation="2.0"/><feColorMatrix in="blurOut" result="blurOut2" type="matrix" values="0 0 0 0 0 0 0 0 0 0 0 0 0 0 0 0 0 0 .4 0"/><feOffset dx="4.0" dy="4.0" in="blurOut2" result="blurOut3"/><feBlend in="SourceGraphic" in2="blurOut3" mode="normal"/></filter></defs><g><text fill="#000000" font-family="sans-serif" font-size="18" lengthAdjust="spacing" textLength="519" x="400.75" y="29.4023">Registering a Cultural Heritage Institution with the Registry.</text><line style="stroke:#A80036;stroke-width:1.0;stroke-dasharray:5.0,5.0;" x1="45" x2="45" y1="123.6875" y2="776.4512"/><line style="stroke:#A80036;stroke-width:1.0;stroke-dasharray:5.0,5.0;" x1="336.5" x2="336.5" y1="123.6875" y2="776.4512"/><line style="stroke:#A80036;stroke-width:1.0;stroke-dasharray:5.0,5.0;" x1="560" x2="560" y1="123.6875" y2="776.4512"/><line style="stroke:#A80036;stroke-width:1.0;stroke-dasharray:5.0,5.0;" x1="1031.5" x2="1031.5" y1="123.6875" y2="776.4512"/><line style="stroke:#A80036;stroke-width:1.0;stroke-dasharray:5.0,5.0;" x1="1273.5" x2="1273.5" y1="123.6875" y2="776.4512"/><text fill="#000000" font-family="sans-serif" font-size="14" lengthAdjust="spacing" textLength="74" x="5" y="120.7344">maintainer</text><ellipse cx="45" cy="50.1992" fill="#FEFECE" filter="url(#f42bl2zqvc219)" rx="8" ry="8" style="stroke:#A80036;stroke-width:2.0;"/><path d="M45,58.1992 L45,85.1992 M32,66.1992 L58,66.1992 M45,85.1992 L32,100.1992 M45,85.1992 L58,100.1992 " fill="none" filter="url(#f42bl2zqvc219)" style="stroke:#A80036;stroke-width:2.0;"/><text fill="#000000" font-family="sans-serif" font-size="14" lengthAdjust="spacing" textLength="74" x="5" y="788.9863">maintainer</text><ellipse cx="45" cy="801.9395" fill="#FEFECE" filter="url(#f42bl2zqvc219)" rx="8" ry="8" style="stroke:#A80036;stroke-width:2.0;"/><path d="M45,809.9395 L45,836.9395 M32,817.9395 L58,817.9395 M45,836.9395 L32,851.9395 M45,836.9395 L58,851.9395 " fill="none" filter="url(#f42bl2zqvc219)" style="stroke:#A80036;stroke-width:2.0;"/><rect fill="#FEFECE" filter="url(#f42bl2zqvc219)" height="30.4883" style="stroke:#A80036;stroke-width:1.5;" width="89" x="290.5" y="88.1992"/><text fill="#000000" font-family="sans-serif" font-size="14" lengthAdjust="spacing" textLength="75" x="297.5" y="108.7344">Dashboard</text><rect fill="#FEFECE" filter="url(#f42bl2zqvc219)" height="30.4883" style="stroke:#A80036;stroke-width:1.5;" width="89" x="290.5" y="775.4512"/><text fill="#000000" font-family="sans-serif" font-size="14" lengthAdjust="spacing" textLength="75" x="297.5" y="795.9863">Dashboard</text><rect fill="#FEFECE" filter="url(#f42bl2zqvc219)" height="30.4883" style="stroke:#A80036;stroke-width:1.5;" width="48" x="534" y="88.1992"/><text fill="#000000" font-family="sans-serif" font-size="14" lengthAdjust="spacing" textLength="34" x="541" y="108.7344">kb.nl</text><rect fill="#FEFECE" filter="url(#f42bl2zqvc219)" height="30.4883" style="stroke:#A80036;stroke-width:1.5;" width="48" x="534" y="775.4512"/><text fill="#000000" font-family="sans-serif" font-size="14" lengthAdjust="spacing" textLength="34" x="541" y="795.9863">kb.nl</text><rect fill="#FEFECE" filter="url(#f42bl2zqvc219)" height="30.4883" style="stroke:#A80036;stroke-width:1.5;" width="113" x="973.5" y="88.1992"/><text fill="#000000" font-family="sans-serif" font-size="14" lengthAdjust="spacing" textLength="99" x="980.5" y="108.7344">registry.nde.nl</text><rect fill="#FEFECE" filter="url(#f42bl2zqvc219)" height="30.4883" style="stroke:#A80036;stroke-width:1.5;" width="113" x="973.5" y="775.4512"/><text fill="#000000" font-family="sans-serif" font-size="14" lengthAdjust="spacing" textLength="99" x="980.5" y="795.9863">registry.nde.nl</text><rect fill="#FEFECE" filter="url(#f42bl2zqvc219)" height="30.4883" style="stroke:#A80036;stroke-width:1.5;" width="79" x="1232.5" y="88.1992"/><text fill="#000000" font-family="sans-serif" font-size="14" lengthAdjust="spacing" textLength="65" x="1239.5" y="108.7344">pod.kb.nl</text><rect fill="#FEFECE" filter="url(#f42bl2zqvc219)" height="30.4883" style="stroke:#A80036;stroke-width:1.5;" width="79" x="1232.5" y="775.4512"/><text fill="#000000" font-family="sans-serif" font-size="14" lengthAdjust="spacing" textLength="65" x="1239.5" y="795.9863">pod.kb.nl</text><polygon fill="#0000FF" points="325,150.998,335,154.998,325,158.998,329,154.998" style="stroke:#0000FF;stroke-width:1.0;"/><line style="stroke:#0000FF;stroke-width:1.0;" x1="45" x2="331" y1="154.998" y2="154.998"/><text fill="#000000" font-family="sans-serif" font-size="13" lengthAdjust="spacing" textLength="183" x="52" y="150.2559">Describe organisation profile</text><line style="stroke:#0000FF;stroke-width:1.0;" x1="337" x2="379" y1="184.3086" y2="184.3086"/><line style="stroke:#0000FF;stroke-width:1.0;" x1="379" x2="379" y1="184.3086" y2="197.3086"/><line style="stroke:#0000FF;stroke-width:1.0;" x1="338" x2="379" y1="197.3086" y2="197.3086"/><polygon fill="#0000FF" points="348,193.3086,338,197.3086,348,201.3086,344,197.3086" style="stroke:#0000FF;stroke-width:1.0;"/><text fill="#000000" font-family="sans-serif" font-size="13" lengthAdjust="spacing" textLength="109" x="344" y="179.5664">Create 'profile.ttl'</text><polygon fill="#0000FF" points="548,237.9297,558,241.9297,548,245.9297,552,241.9297" style="stroke:#0000FF;stroke-width:1.0;"/><line style="stroke:#0000FF;stroke-width:1.0;" x1="337" x2="554" y1="241.9297" y2="241.9297"/><text fill="#000000" font-family="sans-serif" font-size="13" lengthAdjust="spacing" textLength="199" x="344" y="221.877">Publish 'profile.ttl as 'kb.nl#me'</text><text fill="#000000" font-family="sans-serif" font-size="13" lengthAdjust="spacing" textLength="180" x="344" y="237.1875">with inbox 'pod.kb.nl/inbox'</text><polygon fill="#0000FF" points="325,267.2402,335,271.2402,325,275.2402,329,271.2402" style="stroke:#0000FF;stroke-width:1.0;"/><line style="stroke:#0000FF;stroke-width:1.0;" x1="45" x2="331" y1="271.2402" y2="271.2402"/><text fill="#000000" font-family="sans-serif" font-size="13" lengthAdjust="spacing" textLength="106" x="52" y="266.498">Start registration</text><polygon fill="#A80036" points="1020,311.8613,1030,315.8613,1020,319.8613,1024,315.8613" style="stroke:#A80036;stroke-width:1.0;"/><line style="stroke:#A80036;stroke-width:1.0;" x1="337" x2="1026" y1="315.8613" y2="315.8613"/><text fill="#000000" font-family="sans-serif" font-size="13" font-weight="bold" lengthAdjust="spacing" textLength="28" x="344" y="303.4639">(R1)</text><text fill="#000000" font-family="sans-serif" font-size="13" lengthAdjust="spacing" textLength="79" x="376" y="295.8086">POST /inbox</text><text fill="#000000" font-family="sans-serif" font-size="13" lengthAdjust="spacing" textLength="175" x="376" y="311.1191">{ LDN Register "kb.nl#me"  }</text><polygon fill="#A80036" points="348,356.4824,338,360.4824,348,364.4824,344,360.4824" style="stroke:#A80036;stroke-width:1.0;"/><line style="stroke:#A80036;stroke-width:1.0;stroke-dasharray:2.0,2.0;" x1="342" x2="1031" y1="360.4824" y2="360.4824"/><text fill="#000000" font-family="sans-serif" font-size="13" font-weight="bold" lengthAdjust="spacing" textLength="28" x="354" y="348.085">(R2)</text><text fill="#000000" font-family="sans-serif" font-size="13" lengthAdjust="spacing" textLength="76" x="386" y="340.4297">201 Created</text><text fill="#000000" font-family="sans-serif" font-size="13" lengthAdjust="spacing" textLength="204" x="386" y="355.7402">Location: registry.kb.nl/inbox/1</text><line style="stroke:#0000FF;stroke-width:1.0;" x1="1032" x2="1074" y1="389.793" y2="389.793"/><line style="stroke:#0000FF;stroke-width:1.0;" x1="1074" x2="1074" y1="389.793" y2="402.793"/><line style="stroke:#0000FF;stroke-width:1.0;" x1="1033" x2="1074" y1="402.793" y2="402.793"/><polygon fill="#0000FF" points="1043,398.793,1033,402.793,1043,406.793,1039,402.793" style="stroke:#0000FF;stroke-width:1.0;"/><text fill="#000000" font-family="sans-serif" font-size="13" lengthAdjust="spacing" textLength="108" x="1039" y="385.0508">Index "kb.nl#me"</text><polygon fill="#A80036" points="571,428.1035,561,432.1035,571,436.1035,567,432.1035" style="stroke:#A80036;stroke-width:1.0;"/><line style="stroke:#A80036;stroke-width:1.0;" x1="565" x2="1031" y1="432.1035" y2="432.1035"/><text fill="#000000" font-family="sans-serif" font-size="13" font-weight="bold" lengthAdjust="spacing" textLength="28" x="577" y="427.3613">(R3)</text><text fill="#000000" font-family="sans-serif" font-size="13" lengthAdjust="spacing" textLength="67" x="609" y="427.3613">HEAD #me</text><polygon fill="#A80036" points="1020,472.7246,1030,476.7246,1020,480.7246,1024,476.7246" style="stroke:#A80036;stroke-width:1.0;"/><line style="stroke:#A80036;stroke-width:1.0;stroke-dasharray:2.0,2.0;" x1="560" x2="1026" y1="476.7246" y2="476.7246"/><text fill="#000000" font-family="sans-serif" font-size="13" font-weight="bold" lengthAdjust="spacing" textLength="28" x="567" y="464.3271">(R4)</text><text fill="#000000" font-family="sans-serif" font-size="13" lengthAdjust="spacing" textLength="46" x="599" y="456.6719">200 OK</text><text fill="#000000" font-family="sans-serif" font-size="13" lengthAdjust="spacing" textLength="416" x="599" y="471.9824">Link: &lt;pod.kb.nl/inbox&gt;; rel="http://www.w3.org/ns/ldp#inbox"</text><polygon fill="#A80036" points="1262,517.3457,1272,521.3457,1262,525.3457,1266,521.3457" style="stroke:#A80036;stroke-width:1.0;"/><line style="stroke:#A80036;stroke-width:1.0;" x1="1032" x2="1268" y1="521.3457" y2="521.3457"/><text fill="#000000" font-family="sans-serif" font-size="13" font-weight="bold" lengthAdjust="spacing" textLength="28" x="1039" y="508.9482">(R5)</text><text fill="#000000" font-family="sans-serif" font-size="13" lengthAdjust="spacing" textLength="79" x="1071" y="501.293">POST /inbox</text><text fill="#000000" font-family="sans-serif" font-size="13" lengthAdjust="spacing" textLength="186" x="1071" y="516.6035">{ LDN Registered "kb.nl#me" }</text><polygon fill="#A80036" points="1043,561.9668,1033,565.9668,1043,569.9668,1039,565.9668" style="stroke:#A80036;stroke-width:1.0;"/><line style="stroke:#A80036;stroke-width:1.0;stroke-dasharray:2.0,2.0;" x1="1037" x2="1273" y1="565.9668" y2="565.9668"/><text fill="#000000" font-family="sans-serif" font-size="13" font-weight="bold" lengthAdjust="spacing" textLength="28" x="1049" y="553.5693">(R6)</text><text fill="#000000" font-family="sans-serif" font-size="13" lengthAdjust="spacing" textLength="76" x="1081" y="545.9141">201 Created</text><text fill="#000000" font-family="sans-serif" font-size="13" lengthAdjust="spacing" textLength="180" x="1081" y="561.2246">Location: pod.kb.nl/inbox/1</text><polygon fill="#A80036" points="1262,591.2773,1272,595.2773,1262,599.2773,1266,595.2773" style="stroke:#A80036;stroke-width:1.0;"/><line style="stroke:#A80036;stroke-width:1.0;" x1="337" x2="1268" y1="595.2773" y2="595.2773"/><text fill="#000000" font-family="sans-serif" font-size="13" lengthAdjust="spacing" textLength="71" x="344" y="590.5352">GET /inbox</text><polygon fill="#A80036" points="348,635.8984,338,639.8984,348,643.8984,344,639.8984" style="stroke:#A80036;stroke-width:1.0;"/><line style="stroke:#A80036;stroke-width:1.0;stroke-dasharray:2.0,2.0;" x1="342" x2="1273" y1="639.8984" y2="639.8984"/><text fill="#000000" font-family="sans-serif" font-size="13" lengthAdjust="spacing" textLength="46" x="354" y="619.8457">200 OK</text><text fill="#000000" font-family="sans-serif" font-size="13" lengthAdjust="spacing" textLength="224" x="354" y="635.1563">{ "contains": ["pod.kb.nl/inbox/1"] }</text><polygon fill="#A80036" points="1262,665.209,1272,669.209,1262,673.209,1266,669.209" style="stroke:#A80036;stroke-width:1.0;"/><line style="stroke:#A80036;stroke-width:1.0;" x1="337" x2="1268" y1="669.209" y2="669.209"/><text fill="#000000" font-family="sans-serif" font-size="13" lengthAdjust="spacing" textLength="86" x="344" y="664.4668">GET /inbox/1</text><polygon fill="#A80036" points="348,709.8301,338,713.8301,348,717.8301,344,713.8301" style="stroke:#A80036;stroke-width:1.0;"/><line style="stroke:#A80036;stroke-width:1.0;stroke-dasharray:2.0,2.0;" x1="342" x2="1273" y1="713.8301" y2="713.8301"/><text fill="#000000" font-family="sans-serif" font-size="13" lengthAdjust="spacing" textLength="46" x="354" y="693.7773">200 OK</text><text fill="#000000" font-family="sans-serif" font-size="13" lengthAdjust="spacing" textLength="186" x="354" y="709.0879">{ LDN Registered "kb.nl#me" }</text><polygon fill="#0000FF" points="56,754.4512,46,758.4512,56,762.4512,52,758.4512" style="stroke:#0000FF;stroke-width:1.0;"/><line style="stroke:#0000FF;stroke-width:1.0;" x1="50" x2="336" y1="758.4512" y2="758.4512"/><text fill="#000000" font-family="sans-serif" font-size="13" lengthAdjust="spacing" textLength="190" x="62" y="738.3984">Tell user that the organisation</text><text fill="#000000" font-family="sans-serif" font-size="13" lengthAdjust="spacing" textLength="268" x="62" y="753.709">was registered with registry.kb.nl/inbox/1</text><!--MD5=[467a0304bb08c56fde2faa4fab65b318]
@startuml

title
 Registering a Cultural Heritage Institution with the Registry.
end title

autonumber "<b>(R0)"
actor maintainer as M 
participant Dashboard as D
participant kb.nl as WS
participant registry.nde.nl as R
participant pod.kb.nl as Pod

autonumber stop
M -[#0000FF]> D: Describe organisation profile
D -[#0000FF]> D: Create 'profile.ttl'
D -[#0000FF]> WS: Publish 'profile.ttl as 'kb.nl#me'\nwith inbox 'pod.kb.nl/inbox'

M -[#0000FF]> D: Start registration
autonumber resume
D -> R: POST /inbox\n{ LDN Register "kb.nl#me"  }
D <- - R: 201 Created\nLocation: registry.kb.nl/inbox/1

autonumber stop
R -[#0000FF]> R: Index "kb.nl#me"

autonumber resume
R -> WS: HEAD #me
R <- - WS: 200 OK\nLink: <pod.kb.nl/inbox>; rel="http://www.w3.org/ns/ldp#inbox"

R -> Pod: POST /inbox\n{ LDN Registered "kb.nl#me" }
R <- - Pod: 201 Created\nLocation: pod.kb.nl/inbox/1

autonumber stop
D -> Pod: GET /inbox
D <- - Pod: 200 OK\n{ "contains": ["pod.kb.nl/inbox/1"] }

D -> Pod: GET /inbox/1
D <- - Pod: 200 OK\n{ LDN Registered "kb.nl#me" }
D -[#0000FF]> M: Tell user that the organisation\nwas registered with registry.kb.nl/inbox/1


@enduml

PlantUML version 1.2021.00(Sun Jan 10 11:25:05 CET 2021)
(GPL source distribution)
Java Runtime: OpenJDK Runtime Environment
JVM: OpenJDK 64-Bit Server VM
Default Encoding: UTF-8
Language: en
Country: BE
--></g></svg>